<?xml version="1.0" encoding="UTF-8"?>
<svg id="Layer_2" data-name="Layer 2" xmlns="http://www.w3.org/2000/svg" viewBox="0 0 597.4 384.17">
  <defs>
    <style>
      .cls-1 {
        stroke-width: 5px;
      }

      .cls-1, .cls-2, .cls-3, .cls-4, .cls-5 {
        stroke: #fff;
        stroke-miterlimit: 10;
      }

      .cls-1, .cls-2, .cls-3, .cls-5 {
        fill: none;
      }

      .cls-2 {
        stroke-width: 4px;
      }

      .cls-3 {
        stroke-width: 3px;
      }

      .cls-6 {
        font-family: BodoniSvtyTwoITCTT-Book, 'Bodoni 72';
        font-size: 64.5px;
      }

      .cls-6, .cls-7, .cls-8 {
        isolation: isolate;
      }

      .cls-6, .cls-4, .cls-9, .cls-8 {
        fill: #fff;
      }

      .cls-4, .cls-5 {
        stroke-width: 2px;
      }

      .cls-8 {
        font-family: Charter-Roman, Charter;
        font-size: 178px;
      }
    </style>
  </defs>
  <g id="Layer_2-2" data-name="Layer 2">
    <g class="cls-7">
      <text class="cls-8" transform="translate(68.6 292.62) scale(.84 1)"><tspan x="0" y="0">SLETSØ</tspan></text>
    </g>
    <path class="cls-9" d="M595.3,372.07h-18.14c-.94.38-2.02.39-2.96,0h-1.8c-.48,0-.9-.1-1.28-.24-.49.26-1.07.42-1.74.42H131.48c-.34,0-.68.01-1.02,0h-52.43c-1.01,0-1.8-.34-2.4-.88h-.19c-.79.02-1.04-.53-1.2-1.2-.55-2.28-.61-4.63-.65-6.94-.1-5.6-.09-11.21-.02-16.81-.08-.13-.13-.29-.19-.43-.17-.17-.31-.36-.44-.56-.06-.03-.13-.05-.19-.08-.33-.07-.65-.17-.93-.31-.08-.01-.15-.04-.22-.06-.52-.01-.97-.13-1.38-.29-.67-.04-1.24-.22-1.72-.5-.16-.03-.32-.06-.51-.12-4.01-1.34-7.77-.65-11.35,1.5-1.71,1.03-2.05.97-3.2-.74-1.29-1.92-2.65-3.77-4.38-5.27-.64-.55-1.38-1.23-2.28-.78-.89.45-.88,1.44-.88,2.33,0,1.58.39,3.1.64,4.64.26,1.63-.36,2.22-1.93,2.02-4.61-.57-8.83.27-12.31,3.79-2,2.03-3.43,4.45-4.59,7.05-.52,1.16-1.27,1.65-2.53,1.63-3.97-.06-7.95-.03-11.93-.02-1.42,0-1.99.57-2.13,1.96-.23,2.4-.49,4.79-.68,7.19-.09,1.12-.59,1.61-1.64,1.78-2.16.35-4.31.08-6.46-.04-1.02-.06-1.79.34-2.18,1.4-.4,1.09-.03,1.87.82,2.49h593.28c.19,0,.39-.03.58,0,.41.08.49-.07.48-.49-.03-.82-.02-1.64-.02-2.46v.02Z"/>
    <g>
      <path class="cls-4" d="M182.73,33.27c-6.53,6.61-101.07,104.37-116.47,119.65-.7-.56-1.09-4.72.82-6.79,29.93-32.46,75.13-84.16,105.08-117.02,1.84-2.02,3.41-.99,5.06-1.85"/>
      <path class="cls-4" d="M543.8,73.42c2.59,3.95,43.01,62.98,49.21,72.09.65-.32.73-2.18,0-3.41-11.23-19.34-26.63-50.35-37.98-69.79-.71-1.22-1.85-.97-1.81-.95"/>
      <path class="cls-4" d="M423.84,63.4c.19.17,1.76-.24,2.63.49,8.39,7.04,46.07,36.77,51.79,41.96.15.43-.45,1.57-.59,1.78-6.24-4.27-52.37-37.61-54.39-38.98"/>
      <path class="cls-4" d="M425.61,63.46c-.19.17-.99-.43-1.87.3-8.39,7.04-46.09,36.9-51.81,42.09-.15.43.45,1.57.59,1.78,6.24-4.27,52.98-37.55,55-38.92"/>
      <path class="cls-3" d="M186.67,34.8c-5.86,6.34-33.41,35.62-43.15,46.23-2.81,2.14-6.79-.25-12.7,1.24"/>
      <path class="cls-4" d="M199.59,33.54c6.59,6.67,102.2,105.46,117.73,120.85.7-.56,1.1-4.76-.83-6.85-30.18-32.73-75.76-84.87-105.97-118.01-1.86-2.04-3.44-1-5.1-1.86"/>
      <path class="cls-3" d="M195.96,35.24c5.86,6.34,33.41,35.62,43.15,46.23,2.81,2.14,6.79-.25,12.7,1.24"/>
      <path class="cls-9" d="M592.43,142.16H96.13c-6.66,0-13.54-.49-20.19,0-.3.02-.61,0-.91,0-2.9,0-2.9,4.5,0,4.5h496.3c6.66,0,13.54.49,20.19,0,.3-.02.61,0,.91,0,2.9,0,2.9-4.5,0-4.5h0Z"/>
      <path class="cls-9" d="M415.37,70.14h-175.1c-2.9,0-2.9,4.5,0,4.5h175.1c2.9,0,2.9-4.5,0-4.5h0Z"/>
      <path class="cls-9" d="M553.08,70.14h-117.06c-2.9,0-2.9,4.5,0,4.5h117.06c2.9,0,2.9-4.5,0-4.5h0Z"/>
      <path class="cls-9" d="M483.24,113.98h-117.06c-2.9,0-2.9,4.5,0,4.5h117.06c2.9,0,2.9-4.5,0-4.5h0Z"/>
      <path class="cls-9" d="M210.77,113.98h-44.26c-2.9,0-2.9,4.5,0,4.5h44.26c2.9,0,2.9-4.5,0-4.5h0Z"/>
      <path class="cls-1" d="M174.81,82.16c-.25-7.98,5.52-14.68,12.62-15.28,7.66-.65,14.76,5.97,14.91,14.61l.05,3.13v23.33h-27.65v-26.4"/>
      <line class="cls-1" x1="175.51" y1="81.89" x2="202.39" y2="81.89"/>
      <line class="cls-1" x1="188.49" y1="109.22" x2="188.49" y2="67.99"/>
      <path class="cls-2" d="M415.81,92.03c-.17-5.54,3.84-10.2,8.77-10.62,5.32-.45,10.25,4.14,10.36,10.15l.04,2.17v16.21h-19.2v-18.34"/>
      <line class="cls-2" x1="416.3" y1="91.84" x2="434.97" y2="91.84"/>
      <line class="cls-2" x1="425.32" y1="110.83" x2="425.32" y2="82.19"/>
    </g>
    <line class="cls-5" x1="72.53" y1="313.33" x2="596.41" y2="313.33"/>
    <g class="cls-7">
      <text class="cls-6" transform="translate(82.16 366.76)"><tspan x="0" y="0">Tømrer &amp; Entreprise</tspan></text>
    </g>
    <circle class="cls-1" cx="191.86" cy="18.54" r="16.04"/>
  </g>
</svg>